<svg xmlns="http://www.w3.org/2000/svg" version="1.1" xmlns:xlink="http://www.w3.org/1999/xlink" xmlns:svgjs="http://svgjs.dev/svgjs" viewBox="0 0 800 400"><path d="M199.64157104492188,225.26881408691406C202.1803995768229,213.769411722819,207.70608520507812,156.57108561197916,214.87454223632812,156.27239990234375C222.04299926757812,155.97371419270834,233.24371337890625,225.7168426513672,242.65231323242188,223.47669982910156C252.0609130859375,221.23655700683594,255.19710795084634,154.62963104248047,271.3261413574219,142.83154296875C287.4551747639974,131.03345489501953,334.4981943766276,149.25328572591147,339.426513671875,152.68817138671875C344.3548329671224,156.12305704752603,308.8112284342448,155.9737116495768,300.89605712890625,163.44085693359375C292.9808858235677,170.9080022176107,285.6630859375,188.23178354899088,291.93548583984375,197.4910430908203C298.2078857421875,206.75030263264975,333.15411376953125,205.25686899820963,338.53045654296875,218.9964141845703C343.90679931640625,232.735959370931,333.6021474202474,273.6559117635091,324.19354248046875,279.9283142089844C314.7849375406901,286.20071665445965,273.5662841796875,282.6164919535319,282.0788269042969,256.6308288574219C290.59136962890625,230.64516576131186,360.3345082600911,137.15651194254556,375.268798828125,124.01433563232422C390.2030893961589,110.87215932210286,372.8793131510417,159.85662460327148,371.6845703125,177.77777099609375C370.4898274739583,195.69891738891602,360.3345082600911,223.02866872151694,368.100341796875,231.5412139892578C375.8661753336589,240.0537592569987,399.61170959472656,242.59258778889975,418.2795715332031,228.85304260253906C436.9474334716797,215.11349741617838,464.8745422363281,155.6750284830729,480.1075134277344,149.10394287109375C495.3404846191406,142.5328572591146,512.066884358724,175.23895517985025,509.6773986816406,189.42652893066406C507.2879130045573,203.61410268147787,479.80882771809894,234.08004252115884,465.7705993652344,234.22938537597656C451.7323710123698,234.37872823079428,428.28554280598956,205.70490264892578,425.4480285644531,190.3225860595703C422.6105143229167,174.94026947021484,444.8625996907552,150.0000025431315,448.7455139160156,141.93548583984375" fill="none" stroke-width="29" stroke="url(&quot;#SvgjsLinearGradient1001&quot;)" stroke-linecap="round" stroke-dasharray="0 0" stroke-opacity="1"></path><defs><linearGradient id="SvgjsLinearGradient1001" gradientTransform="rotate(0, 0.5, 0.5)"><stop stop-color="hsl(37, 91%, 55%)" offset="0"></stop><stop stop-color="hsl(37, 43%, 74%)" offset="1"></stop></linearGradient></defs></svg>